<svg id="Capa_1" data-name="Capa 1" xmlns="http://www.w3.org/2000/svg" viewBox="0 0 500 183"><defs><style>.cls-1{fill:#e4e4e1;}.cls-2{fill:#70706f;}.cls-3{font-size:78.87px;}.cls-11,.cls-12,.cls-13,.cls-14,.cls-15,.cls-3,.cls-4{fill:#024880;stroke-miterlimit:10;}.cls-11,.cls-12,.cls-13,.cls-14,.cls-3,.cls-4{stroke:#1d1d1b;}.cls-11,.cls-12,.cls-13,.cls-14,.cls-3{font-family:Verdana-Bold, Verdana;font-weight:700;}.cls-4{font-size:59.36px;}.cls-15,.cls-4{font-family:SourceSansPro-Black, Source Sans Pro;font-weight:800;}.cls-5{fill:#1d1c1b;}.cls-6{fill:#868686;}.cls-7{fill:#6c6b6b;}.cls-8{fill:#363574;}.cls-9{fill:#e00713;}.cls-10{fill:#9c9b9b;}.cls-11{font-size:54.47px;}.cls-12{font-size:53.8px;}.cls-13{font-size:54.76px;}.cls-14{font-size:51.82px;}.cls-15{font-size:19.59px;stroke:#3c3c3b;stroke-width:0.3px;}.cls-16{letter-spacing:-0.04em;}.cls-17{letter-spacing:0em;}.cls-18{letter-spacing:-0.1em;}.cls-19{letter-spacing:-0.08em;}.cls-20{letter-spacing:0em;}.cls-21{fill:#c10d0e;}</style></defs><polygon class="cls-1" points="493.85 80.81 359.95 15.45 273.3 57.25 358.69 9.21 489.93 68.35 493.85 80.81"/><polygon class="cls-2" points="270.66 31.91 153.13 125.2 171.66 122.24 273.18 40.53 270.66 31.91"/><text class="cls-3" transform="translate(138.58 107.4) scale(1.38 1)">A</text><text class="cls-4" transform="translate(214.56 106.06) scale(1.42 1)">C</text><text class="cls-4" transform="translate(257.91 105.94) scale(1.42 1)">E</text><polygon class="cls-5" points="145.2 16.37 22.11 101.02 0.86 70.19 38.26 52.94 145.99 6.35 145.2 16.37"/><polygon class="cls-6" points="144.05 20.57 20.51 124.13 0 75.84 21.41 107.23 144.05 20.57"/><polygon class="cls-7" points="273.22 40.53 317.11 66 330.22 66 270.7 31.91 273.22 40.53"/><polygon class="cls-5" points="358.69 7.33 259.31 64.72 310.51 30.84 357.43 0 358.69 7.33"/><polygon class="cls-5" points="495.39 71.59 358.69 7.33 357.43 0 489.08 45.93 492.87 61.31 495.39 71.59"/><polygon class="cls-5" points="237.06 66.96 144.58 15.76 145.99 6.35 178.55 26.99 242 68.05 237.06 66.96"/><rect class="cls-8" x="133.28" y="32.69" width="17.49" height="9.67"/><rect class="cls-9" x="154.47" y="39.74" width="15.13" height="8.36"/><rect class="cls-9" x="121.51" y="50.98" width="20.51" height="7.05"/><rect class="cls-8" x="146.74" y="53.07" width="18.16" height="8.47"/><rect class="cls-9" x="166.91" y="54.5" width="11.43" height="3.53"/><rect class="cls-9" x="160.19" y="64.56" width="12.44" height="3.92"/><rect class="cls-10" x="138.67" y="65.43" width="14.46" height="6.4"/><rect class="cls-10" x="173.81" y="59.21" width="5.72" height="4.44"/><text class="cls-11" transform="translate(341.51 105.83) scale(1.26 1)">A</text><text class="cls-12" transform="translate(444.81 106.07) scale(1.32 1)">A</text><text class="cls-13" transform="translate(297.93 106.3) scale(1.19 1)">R</text><text class="cls-14" transform="translate(388.44 105.11) scale(1.29 1)">M</text><text class="cls-15" transform="translate(199.2 123.34) scale(1.4 1)">M<tspan class="cls-16" x="15.2" y="0">A</tspan><tspan class="cls-17" x="25.86" y="0">TERIALES S.A. DE C</tspan><tspan class="cls-18" x="192.45" y="0">.</tspan><tspan class="cls-19" x="196.76" y="0">V</tspan><tspan class="cls-20" x="206.4" y="0">.</tspan></text><rect class="cls-21" x="3.48" y="126.7" width="488.97" height="13.59"/></svg>