<svg id="Capa_1" data-name="Capa 1" xmlns="http://www.w3.org/2000/svg" viewBox="0 0 491.5 183.5"><defs><style>.cls-1{fill:#e4e4e1;}.cls-2{fill:#70706f;}.cls-3{font-size:78.87px;}.cls-11,.cls-12,.cls-13,.cls-14,.cls-15,.cls-3,.cls-4{fill:#024880;stroke-miterlimit:10;}.cls-11,.cls-12,.cls-13,.cls-14,.cls-3,.cls-4{stroke:#1d1d1b;}.cls-11,.cls-12,.cls-13,.cls-14,.cls-3{font-family:Verdana-Bold, Verdana;font-weight:700;}.cls-4{font-size:59.36px;}.cls-15,.cls-4{font-family:SourceSansPro-Black, Source Sans Pro;font-weight:800;}.cls-5{fill:#1d1c1b;}.cls-6{fill:#868686;}.cls-7{fill:#6c6b6b;}.cls-8{fill:#363574;}.cls-9{fill:#e00713;}.cls-10{fill:#9c9b9b;}.cls-11{font-size:54.47px;}.cls-12{font-size:53.8px;}.cls-13{font-size:54.76px;}.cls-14{font-size:51.82px;}.cls-15{font-size:19.59px;stroke:#3c3c3b;stroke-width:0.3px;}.cls-16{letter-spacing:-0.04em;}.cls-17{letter-spacing:-0.1em;}.cls-18{letter-spacing:-0.08em;}.cls-19{fill:#c10d0e;}</style></defs><polygon class="cls-1" points="484.96 80.81 353.47 15.45 268.38 57.25 352.23 9.21 481.11 68.35 484.96 80.81"/><polygon class="cls-2" points="265.79 31.91 150.38 125.2 168.57 122.24 268.27 40.53 265.79 31.91"/><text class="cls-3" transform="translate(136.09 107.4) scale(1.36 1)">A</text><text class="cls-4" transform="translate(210.7 106.06) scale(1.4 1)">C</text><text class="cls-4" transform="translate(253.27 105.94) scale(1.4 1)">E</text><polygon class="cls-5" points="142.58 16.37 21.72 101.02 0.85 70.19 37.57 52.94 143.36 6.35 142.58 16.37"/><polygon class="cls-6" points="141.45 20.57 20.14 124.13 0 75.84 21.02 107.23 141.45 20.57"/><polygon class="cls-7" points="268.3 40.53 311.4 66 324.28 66 265.82 31.91 268.3 40.53"/><polygon class="cls-5" points="352.23 7.33 254.64 64.72 304.92 30.84 350.99 0 352.23 7.33"/><polygon class="cls-5" points="486.47 71.59 352.23 7.33 350.99 0 480.28 45.93 484 61.31 486.47 71.59"/><polygon class="cls-5" points="232.8 66.96 141.98 15.76 143.36 6.35 175.34 26.99 237.64 68.05 232.8 66.96"/><rect class="cls-8" x="130.89" y="32.69" width="17.17" height="9.67"/><rect class="cls-9" x="151.69" y="39.74" width="14.86" height="8.36"/><rect class="cls-9" x="119.33" y="50.98" width="20.14" height="7.05"/><rect class="cls-8" x="144.1" y="53.07" width="17.83" height="8.47"/><rect class="cls-9" x="163.91" y="54.5" width="11.23" height="3.53"/><rect class="cls-9" x="157.3" y="64.56" width="12.22" height="3.92"/><rect class="cls-10" x="136.17" y="65.43" width="14.2" height="6.4"/><rect class="cls-10" x="170.68" y="59.21" width="5.61" height="4.44"/><text class="cls-11" transform="translate(335.36 105.83) scale(1.23 1)">A</text><text class="cls-12" transform="translate(436.8 106.07) scale(1.3 1)">A</text><text class="cls-13" transform="translate(292.57 106.3) scale(1.17 1)">R</text><text class="cls-14" transform="translate(381.45 105.11) scale(1.27 1)">M</text><text class="cls-15" transform="translate(195.61 123.34) scale(1.38 1)">M<tspan class="cls-16" x="15.2" y="0">A</tspan><tspan x="25.86" y="0">TERIALES S.A. DE C</tspan><tspan class="cls-17" x="192.45" y="0">.</tspan><tspan class="cls-18" x="196.76" y="0">V</tspan><tspan x="206.4" y="0">.</tspan></text><rect class="cls-19" x="3.41" y="126.7" width="480.17" height="13.59"/><path class="cls-5" d="M483.58,76.36"/></svg>