<svg xmlns="http://www.w3.org/2000/svg" viewBox="0 0 300.5 126.41"><defs><style>.cls-1{fill:#e4e4e1;}.cls-2{fill:#70706f;}.cls-3{font-size:71.06px;}.cls-11,.cls-12,.cls-13,.cls-14,.cls-20,.cls-3,.cls-4{fill:#024880;stroke-miterlimit:10;}.cls-11,.cls-12,.cls-13,.cls-20,.cls-3,.cls-4{stroke:#1d1d1b;}.cls-11,.cls-12,.cls-13,.cls-20,.cls-3{font-family:Verdana-Bold, Verdana;font-weight:700;}.cls-4{font-size:53.48px;}.cls-14,.cls-4{font-family:SourceSansPro-Black, Source Sans Pro;font-weight:800;}.cls-5{fill:#1d1c1b;}.cls-6{fill:#868686;}.cls-7{fill:#6c6b6b;}.cls-8{fill:#363574;}.cls-9{fill:#e00713;}.cls-10{fill:#9c9b9b;}.cls-11{font-size:49.08px;}.cls-12{font-size:48.48px;}.cls-13{font-size:49.34px;}.cls-14{font-size:17.66px;stroke:#3c3c3b;stroke-width:0.3px;}.cls-15{letter-spacing:-0.04em;}.cls-16{letter-spacing:-0.1em;}.cls-17{letter-spacing:-0.08em;}.cls-18{letter-spacing:0em;}.cls-19{fill:#c10d0e;}.cls-20{font-size:49.97px;}</style></defs><g id="Capa_2" data-name="Capa 2"><g id="Capa_1-2" data-name="Capa 1"><polygon class="cls-1" points="296.31 72.81 215.97 13.92 163.98 51.58 215.21 8.3 293.96 61.58 296.31 72.81"/><polygon class="cls-2" points="162.4 28.75 91.88 112.81 102.99 110.14 163.91 36.52 162.4 28.75"/><text class="cls-3" transform="translate(83.15 96.77) scale(0.92 1)">A</text><text class="cls-4" transform="translate(128.74 95.57) scale(0.95 1)">C</text><text class="cls-4" transform="translate(154.75 95.46) scale(0.95 1)">E</text><polygon class="cls-5" points="87.12 14.75 13.27 91.02 0.52 63.24 22.95 47.7 87.59 5.72 87.12 14.75"/><polygon class="cls-6" points="86.43 18.54 12.31 111.85 0 68.34 12.85 96.63 86.43 18.54"/><polygon class="cls-7" points="163.93 36.52 190.26 59.47 198.13 59.47 162.42 28.75 163.93 36.52"/><polygon class="cls-5" points="215.21 6.6 155.59 58.31 186.31 27.79 214.46 0 215.21 6.6"/><polygon class="cls-5" points="297.24 64.51 215.21 6.6 214.46 0 293.45 41.38 295.72 55.24 297.24 64.51"/><polygon class="cls-5" points="142.24 60.34 86.75 14.2 87.59 5.72 107.13 24.32 145.2 61.32 142.24 60.34"/><rect class="cls-8" x="79.97" y="29.46" width="10.49" height="8.71"/><rect class="cls-9" x="92.68" y="35.81" width="9.08" height="7.53"/><rect class="cls-9" x="72.91" y="45.93" width="12.31" height="6.36"/><rect class="cls-8" x="88.04" y="47.82" width="10.9" height="7.64"/><rect class="cls-9" x="100.15" y="49.11" width="6.86" height="3.18"/><rect class="cls-9" x="96.11" y="58.18" width="7.47" height="3.53"/><rect class="cls-10" x="83.2" y="58.96" width="8.68" height="5.77"/><rect class="cls-10" x="104.29" y="53.35" width="3.43" height="4"/><text class="cls-11" transform="translate(204.9 95.36) scale(0.84 1)">A</text><text class="cls-12" transform="translate(266.88 95.58) scale(0.88 1)">A</text><text class="cls-13" transform="translate(178.76 95.79) scale(0.79 1)">R</text><text class="cls-14" transform="translate(119.52 111.14) scale(0.93 1)">M<tspan class="cls-15" x="13.7" y="0">A</tspan><tspan x="23.31" y="0">TERIALES S.A. DE C</tspan><tspan class="cls-16" x="173.41" y="0">.</tspan><tspan class="cls-17" x="177.3" y="0">V</tspan><tspan class="cls-18" x="185.98" y="0">.</tspan></text><rect class="cls-19" x="2.09" y="114.16" width="293.38" height="12.24"/><text class="cls-20" transform="translate(233 95.67) scale(0.82 1)">M</text></g></g></svg>