<svg id="Capa_1" data-name="Capa 1" xmlns="http://www.w3.org/2000/svg" viewBox="0 0 464 183"><defs><style>.cls-1{fill:#e4e4e1;}.cls-2{fill:#70706f;}.cls-3{font-size:78.87px;}.cls-11,.cls-12,.cls-13,.cls-14,.cls-15,.cls-3,.cls-4{fill:#024880;stroke-miterlimit:10;}.cls-11,.cls-12,.cls-13,.cls-14,.cls-3,.cls-4{stroke:#1d1d1b;}.cls-11,.cls-12,.cls-13,.cls-14,.cls-3{font-family:Verdana-Bold, Verdana;font-weight:700;}.cls-4{font-size:59.36px;}.cls-15,.cls-4{font-family:SourceSansPro-Black, Source Sans Pro;font-weight:800;}.cls-5{fill:#1d1c1b;}.cls-6{fill:#868686;}.cls-7{fill:#6c6b6b;}.cls-8{fill:#363574;}.cls-9{fill:#e00713;}.cls-10{fill:#9c9b9b;}.cls-11{font-size:54.47px;}.cls-12{font-size:53.8px;}.cls-13{font-size:54.76px;}.cls-14{font-size:51.82px;}.cls-15{font-size:19.59px;stroke:#3c3c3b;stroke-width:0.3px;}.cls-16{letter-spacing:-0.04em;}.cls-17{letter-spacing:-0.1em;}.cls-18{letter-spacing:-0.08em;}.cls-19{fill:#c10d0e;}</style></defs><polygon class="cls-1" points="456.33 80.81 332.87 15.45 252.98 57.25 331.71 9.21 452.71 68.35 456.33 80.81"/><polygon class="cls-2" points="250.55 31.91 142.19 125.2 159.27 122.24 252.88 40.53 250.55 31.91"/><text class="cls-3" transform="translate(128.77 107.4) scale(1.27 1)">A</text><text class="cls-4" transform="translate(198.82 106.06) scale(1.31 1)">C</text><text class="cls-4" transform="translate(238.79 105.94) scale(1.31 1)">E</text><polygon class="cls-5" points="134.87 16.37 21.39 101.02 1.79 70.19 36.27 52.94 135.6 6.35 134.87 16.37"/><polygon class="cls-6" points="133.81 20.57 19.91 124.13 1 75.84 20.74 107.23 133.81 20.57"/><polygon class="cls-7" points="252.91 40.53 293.37 66 305.46 66 250.58 31.91 252.91 40.53"/><polygon class="cls-5" points="331.71 7.33 240.09 64.72 287.29 30.84 330.55 0 331.71 7.33"/><polygon class="cls-5" points="457.75 71.59 331.71 7.33 330.55 0 451.94 45.93 455.42 61.31 457.75 71.59"/><polygon class="cls-5" points="219.57 66.96 134.31 15.76 135.6 6.35 165.62 26.99 224.12 68.05 219.57 66.96"/><rect class="cls-8" x="123.89" y="32.69" width="16.12" height="9.67"/><rect class="cls-9" x="143.42" y="39.74" width="13.95" height="8.36"/><rect class="cls-9" x="113.04" y="50.98" width="18.91" height="7.05"/><rect class="cls-8" x="136.29" y="53.07" width="16.74" height="8.47"/><rect class="cls-9" x="154.89" y="54.5" width="10.54" height="3.53"/><rect class="cls-9" x="148.69" y="64.56" width="11.47" height="3.92"/><rect class="cls-10" x="128.85" y="65.43" width="13.33" height="6.4"/><rect class="cls-10" x="161.25" y="59.21" width="5.27" height="4.44"/><text class="cls-11" transform="translate(315.87 105.83) scale(1.16 1)">A</text><text class="cls-12" transform="translate(411.11 106.07) scale(1.22 1)">A</text><text class="cls-13" transform="translate(275.69 106.3) scale(1.1 1)">R</text><text class="cls-14" transform="translate(359.14 105.11) scale(1.19 1)">M</text><text class="cls-15" transform="translate(184.66 123.34) scale(1.29 1)">M<tspan class="cls-16" x="15.2" y="0">A</tspan><tspan x="25.86" y="0">TERIALES S.A. DE C</tspan><tspan class="cls-17" x="192.45" y="0">.</tspan><tspan class="cls-18" x="196.76" y="0">V</tspan><tspan x="206.4" y="0">.</tspan></text><rect class="cls-19" x="4.2" y="126.7" width="450.83" height="13.59"/></svg>